<?xml version="1.0" encoding="UTF-8" standalone="no"?>
<!DOCTYPE svg PUBLIC "-//W3C//DTD SVG 1.1//EN"
 "http://www.w3.org/Graphics/SVG/1.1/DTD/svg11.dtd">
<!-- Generated by graphviz version 2.43.0 (0)
 -->
<!-- Title: %3 Pages: 1 -->
<svg width="383pt" height="206pt"
 viewBox="0.00 0.00 383.00 206.00" xmlns="http://www.w3.org/2000/svg" xmlns:xlink="http://www.w3.org/1999/xlink">
<g id="graph0" class="graph" transform="scale(1 1) rotate(0) translate(4 202)">
<title>%3</title>
<polygon fill="#242424" stroke="transparent" points="-4,4 -4,-202 379,-202 379,4 -4,4"/>
<!-- cli -->
<g id="node1" class="node">
<title>cli</title>
<polygon fill="#343434" stroke="#343434" points="101.5,-36 47.5,-36 47.5,0 101.5,0 101.5,-36"/>
<text text-anchor="middle" x="74.5" y="-14.3" font-family="Courier,monospace" font-size="14.00" fill="#b6ecf3">cli</text>
</g>
<!-- openexr_tools.command -->
<g id="node2" class="node">
<title>openexr_tools.command</title>
<polygon fill="#343434" stroke="#343434" points="375,-171 185,-171 185,-135 375,-135 375,-171"/>
<text text-anchor="middle" x="280" y="-149.3" font-family="Courier,monospace" font-size="14.00" fill="#b6ecf3">openexr_tools.command</text>
</g>
<!-- openexr_tools.enum -->
<g id="node3" class="node">
<title>openexr_tools.enum</title>
<polygon fill="#343434" stroke="#343434" points="362.5,-117 197.5,-117 197.5,-81 362.5,-81 362.5,-117"/>
<text text-anchor="middle" x="280" y="-95.3" font-family="Courier,monospace" font-size="14.00" fill="#b6ecf3">openexr_tools.enum</text>
</g>
<!-- click -->
<g id="node4" class="node">
<title>click</title>
<polygon fill="#343434" stroke="#343434" points="103.5,-198 45.5,-198 45.5,-162 103.5,-162 103.5,-198"/>
<text text-anchor="middle" x="74.5" y="-176.3" font-family="Courier,monospace" font-size="14.00" fill="#de958e">click</text>
</g>
<!-- click&#45;&gt;openexr_tools.command -->
<g id="edge1" class="edge">
<title>click&#45;&gt;openexr_tools.command</title>
<path fill="none" stroke="#de958e" d="M103.8,-176.25C122.58,-173.75 148.52,-170.31 174.69,-166.84"/>
<polygon fill="#de958e" stroke="#de958e" points="175.26,-170.29 184.72,-165.51 174.34,-163.36 175.26,-170.29"/>
</g>
<!-- openexr_tools -->
<g id="node5" class="node">
<title>openexr_tools</title>
<polygon fill="#343434" stroke="#343434" points="136.5,-144 12.5,-144 12.5,-108 136.5,-108 136.5,-144"/>
<text text-anchor="middle" x="74.5" y="-122.3" font-family="Courier,monospace" font-size="14.00" fill="#a0d17b">openexr_tools</text>
</g>
<!-- openexr_tools&#45;&gt;openexr_tools.command -->
<g id="edge2" class="edge">
<title>openexr_tools&#45;&gt;openexr_tools.command</title>
<path fill="none" stroke="#a0d17b" d="M136.56,-134.1C148.68,-135.71 161.74,-137.44 174.84,-139.18"/>
<polygon fill="#a0d17b" stroke="#a0d17b" points="174.49,-142.66 184.86,-140.51 175.41,-135.72 174.49,-142.66"/>
</g>
<!-- openexr_tools&#45;&gt;openexr_tools.enum -->
<g id="edge3" class="edge">
<title>openexr_tools&#45;&gt;openexr_tools.enum</title>
<path fill="none" stroke="#a0d17b" d="M136.56,-117.9C152.51,-115.78 170.06,-113.45 187.23,-111.18"/>
<polygon fill="#a0d17b" stroke="#a0d17b" points="187.82,-114.63 197.28,-109.84 186.9,-107.69 187.82,-114.63"/>
</g>
<!-- lunchbox.enforce -->
<g id="node6" class="node">
<title>lunchbox.enforce</title>
<polygon fill="#343434" stroke="#343434" points="149,-90 0,-90 0,-54 149,-54 149,-90"/>
<text text-anchor="middle" x="74.5" y="-68.3" font-family="Courier,monospace" font-size="14.00" fill="#de958e">lunchbox.enforce</text>
</g>
<!-- lunchbox.enforce&#45;&gt;openexr_tools.enum -->
<g id="edge4" class="edge">
<title>lunchbox.enforce&#45;&gt;openexr_tools.enum</title>
<path fill="none" stroke="#de958e" d="M149.26,-81.79C161.55,-83.42 174.44,-85.13 187.12,-86.81"/>
<polygon fill="#de958e" stroke="#de958e" points="186.86,-90.31 197.23,-88.15 187.78,-83.37 186.86,-90.31"/>
</g>
</g>
</svg>
