<?xml version="1.0" encoding="UTF-8" standalone="no"?>
<!DOCTYPE svg PUBLIC "-//W3C//DTD SVG 1.1//EN"
 "http://www.w3.org/Graphics/SVG/1.1/DTD/svg11.dtd">
<!-- Generated by graphviz version 2.43.0 (0)
 -->
<!-- Title: %3 Pages: 1 -->
<svg width="592pt" height="360pt"
 viewBox="0.00 0.00 592.00 360.00" xmlns="http://www.w3.org/2000/svg" xmlns:xlink="http://www.w3.org/1999/xlink">
<g id="graph0" class="graph" transform="scale(1 1) rotate(0) translate(4 356)">
<title>%3</title>
<polygon fill="#242424" stroke="transparent" points="-4,4 -4,-356 588,-356 588,4 -4,4"/>
<!-- cli -->
<g id="node1" class="node">
<title>cli</title>
<polygon fill="#343434" stroke="#343434" points="101.5,-190 47.5,-190 47.5,-154 101.5,-154 101.5,-190"/>
<text text-anchor="middle" x="74.5" y="-168.3" font-family="Courier,monospace" font-size="14.00" fill="#b6ecf3">cli</text>
</g>
<!-- openexr_tools.command -->
<g id="node2" class="node">
<title>openexr_tools.command</title>
<polygon fill="#343434" stroke="#343434" points="375,-348 185,-348 185,-312 375,-312 375,-348"/>
<text text-anchor="middle" x="280" y="-326.3" font-family="Courier,monospace" font-size="14.00" fill="#b6ecf3">openexr_tools.command</text>
</g>
<!-- openexr_tools.enum -->
<g id="node3" class="node">
<title>openexr_tools.enum</title>
<polygon fill="#343434" stroke="#343434" points="362.5,-252 197.5,-252 197.5,-216 362.5,-216 362.5,-252"/>
<text text-anchor="middle" x="280" y="-230.3" font-family="Courier,monospace" font-size="14.00" fill="#b6ecf3">openexr_tools.enum</text>
</g>
<!-- openexr_tools.tools -->
<g id="node4" class="node">
<title>openexr_tools.tools</title>
<polygon fill="#343434" stroke="#343434" points="584,-171 411,-171 411,-135 584,-135 584,-171"/>
<text text-anchor="middle" x="497.5" y="-149.3" font-family="Courier,monospace" font-size="14.00" fill="#b6ecf3">openexr_tools.tools</text>
</g>
<!-- openexr_tools.enum&#45;&gt;openexr_tools.tools -->
<g id="edge1" class="edge">
<title>openexr_tools.enum&#45;&gt;openexr_tools.tools</title>
<path fill="none" stroke="#b6ecf3" d="M348.12,-215.95C357.22,-213.15 366.38,-210.14 375,-207 400.34,-197.78 427.85,-185.73 450.28,-175.35"/>
<polygon fill="#b6ecf3" stroke="#b6ecf3" points="451.98,-178.42 459.56,-171.02 449.01,-172.08 451.98,-178.42"/>
</g>
<!-- click -->
<g id="node5" class="node">
<title>click</title>
<polygon fill="#343434" stroke="#343434" points="103.5,-352 45.5,-352 45.5,-316 103.5,-316 103.5,-352"/>
<text text-anchor="middle" x="74.5" y="-330.3" font-family="Courier,monospace" font-size="14.00" fill="#de958e">click</text>
</g>
<!-- click&#45;&gt;openexr_tools.command -->
<g id="edge2" class="edge">
<title>click&#45;&gt;openexr_tools.command</title>
<path fill="none" stroke="#de958e" d="M103.8,-333.44C122.58,-333.07 148.52,-332.56 174.69,-332.05"/>
<polygon fill="#de958e" stroke="#de958e" points="174.79,-335.55 184.72,-331.85 174.65,-328.55 174.79,-335.55"/>
</g>
<!-- openexr_tools -->
<g id="node6" class="node">
<title>openexr_tools</title>
<polygon fill="#343434" stroke="#343434" points="136.5,-298 12.5,-298 12.5,-262 136.5,-262 136.5,-298"/>
<text text-anchor="middle" x="74.5" y="-276.3" font-family="Courier,monospace" font-size="14.00" fill="#a0d17b">openexr_tools</text>
</g>
<!-- openexr_tools&#45;&gt;openexr_tools.command -->
<g id="edge3" class="edge">
<title>openexr_tools&#45;&gt;openexr_tools.command</title>
<path fill="none" stroke="#a0d17b" d="M136.56,-295C155.09,-299.55 175.77,-304.64 195.51,-309.49"/>
<polygon fill="#a0d17b" stroke="#a0d17b" points="194.87,-312.93 205.41,-311.92 196.54,-306.13 194.87,-312.93"/>
</g>
<!-- openexr_tools&#45;&gt;openexr_tools.enum -->
<g id="edge4" class="edge">
<title>openexr_tools&#45;&gt;openexr_tools.enum</title>
<path fill="none" stroke="#a0d17b" d="M136.56,-266.2C153.15,-262.45 171.48,-258.31 189.3,-254.28"/>
<polygon fill="#a0d17b" stroke="#a0d17b" points="190.16,-257.67 199.14,-252.05 188.61,-250.84 190.16,-257.67"/>
</g>
<!-- openexr_tools&#45;&gt;openexr_tools.tools -->
<g id="edge5" class="edge">
<title>openexr_tools&#45;&gt;openexr_tools.tools</title>
<path fill="none" stroke="#a0d17b" d="M136.64,-287.43C199.08,-292.47 297.58,-293.28 375,-261 417.07,-243.46 454.42,-205.06 476.26,-179.11"/>
<polygon fill="#a0d17b" stroke="#a0d17b" points="479.15,-181.11 482.79,-171.16 473.74,-176.66 479.15,-181.11"/>
</g>
<!-- Imath -->
<g id="node7" class="node">
<title>Imath</title>
<polygon fill="#343434" stroke="#343434" points="309,-198 251,-198 251,-162 309,-162 309,-198"/>
<text text-anchor="middle" x="280" y="-176.3" font-family="Courier,monospace" font-size="14.00" fill="#de958e">Imath</text>
</g>
<!-- Imath&#45;&gt;openexr_tools.tools -->
<g id="edge6" class="edge">
<title>Imath&#45;&gt;openexr_tools.tools</title>
<path fill="none" stroke="#de958e" d="M309.17,-176.47C332.54,-173.54 367.19,-169.2 400.35,-165.05"/>
<polygon fill="#de958e" stroke="#de958e" points="401.1,-168.48 410.58,-163.76 400.23,-161.53 401.1,-168.48"/>
</g>
<!-- OpenEXR -->
<g id="node8" class="node">
<title>OpenEXR</title>
<polygon fill="#343434" stroke="#343434" points="317,-144 243,-144 243,-108 317,-108 317,-144"/>
<text text-anchor="middle" x="280" y="-122.3" font-family="Courier,monospace" font-size="14.00" fill="#de958e">OpenEXR</text>
</g>
<!-- OpenEXR&#45;&gt;openexr_tools.tools -->
<g id="edge7" class="edge">
<title>OpenEXR&#45;&gt;openexr_tools.tools</title>
<path fill="none" stroke="#de958e" d="M317.07,-130.52C340.11,-133.41 371.14,-137.29 400.93,-141.03"/>
<polygon fill="#de958e" stroke="#de958e" points="400.61,-144.51 410.96,-142.28 401.48,-137.57 400.61,-144.51"/>
</g>
<!-- lunchbox.enforce -->
<g id="node9" class="node">
<title>lunchbox.enforce</title>
<polygon fill="#343434" stroke="#343434" points="149,-244 0,-244 0,-208 149,-208 149,-244"/>
<text text-anchor="middle" x="74.5" y="-222.3" font-family="Courier,monospace" font-size="14.00" fill="#de958e">lunchbox.enforce</text>
</g>
<!-- lunchbox.enforce&#45;&gt;openexr_tools.enum -->
<g id="edge8" class="edge">
<title>lunchbox.enforce&#45;&gt;openexr_tools.enum</title>
<path fill="none" stroke="#de958e" d="M149.26,-228.9C161.55,-229.38 174.44,-229.89 187.12,-230.39"/>
<polygon fill="#de958e" stroke="#de958e" points="187.1,-233.89 197.23,-230.79 187.38,-226.9 187.1,-233.89"/>
</g>
<!-- numpy -->
<g id="node10" class="node">
<title>numpy</title>
<polygon fill="#343434" stroke="#343434" points="309,-90 251,-90 251,-54 309,-54 309,-90"/>
<text text-anchor="middle" x="280" y="-68.3" font-family="Courier,monospace" font-size="14.00" fill="#de958e">numpy</text>
</g>
<!-- numpy&#45;&gt;openexr_tools.tools -->
<g id="edge9" class="edge">
<title>numpy&#45;&gt;openexr_tools.tools</title>
<path fill="none" stroke="#de958e" d="M309.3,-79.03C328.13,-83.98 353.3,-91.1 375,-99 400.34,-108.22 427.85,-120.27 450.28,-130.65"/>
<polygon fill="#de958e" stroke="#de958e" points="449.01,-133.92 459.56,-134.98 451.98,-127.58 449.01,-133.92"/>
</g>
<!-- numpy.typing -->
<g id="node11" class="node">
<title>numpy.typing</title>
<polygon fill="#343434" stroke="#343434" points="338,-36 222,-36 222,0 338,0 338,-36"/>
<text text-anchor="middle" x="280" y="-14.3" font-family="Courier,monospace" font-size="14.00" fill="#de958e">numpy.typing</text>
</g>
<!-- numpy.typing&#45;&gt;openexr_tools.tools -->
<g id="edge10" class="edge">
<title>numpy.typing&#45;&gt;openexr_tools.tools</title>
<path fill="none" stroke="#de958e" d="M338.3,-30.05C350.82,-33.87 363.7,-38.78 375,-45 414.27,-66.61 451.57,-102.97 474.24,-127.47"/>
<polygon fill="#de958e" stroke="#de958e" points="471.75,-129.93 481.07,-134.97 476.92,-125.22 471.75,-129.93"/>
</g>
</g>
</svg>
